<?xml version="1.0" encoding="UTF-8"?>
<!--Generator: Apple Native CoreSVG 175.5-->
<!DOCTYPE svg
PUBLIC "-//W3C//DTD SVG 1.1//EN"
       "http://www.w3.org/Graphics/SVG/1.1/DTD/svg11.dtd">
<svg version="1.1" xmlns="http://www.w3.org/2000/svg" xmlns:xlink="http://www.w3.org/1999/xlink" width="23.0273" height="17.9785">
 <g>
  <rect height="17.9785" opacity="0" width="23.0273" x="0" y="0"/>
  <path d="M4.63867 5.91797L10.9375 5.91797C11.3184 5.91797 11.6211 5.60547 11.6211 5.22461C11.6211 4.84375 11.3184 4.55078 10.9375 4.55078L4.63867 4.55078C4.24805 4.55078 3.96484 4.84375 3.96484 5.22461C3.96484 5.60547 4.24805 5.91797 4.63867 5.91797ZM4.63867 8.52539L9.24805 8.52539C9.62891 8.52539 9.93164 8.22266 9.93164 7.8418C9.93164 7.46094 9.62891 7.1582 9.24805 7.1582L4.63867 7.1582C4.24805 7.1582 3.96484 7.46094 3.96484 7.8418C3.96484 8.22266 4.24805 8.52539 4.63867 8.52539ZM16.7285 8.78906C18.0176 8.78906 19.0625 7.74414 19.0625 6.44531C19.0625 5.14648 18.0176 4.10156 16.7285 4.10156C15.4395 4.10156 14.3848 5.14648 14.3848 6.44531C14.3848 7.74414 15.4395 8.78906 16.7285 8.78906ZM3.06641 17.9785L19.9609 17.9785C22.0117 17.9785 23.0273 16.9727 23.0273 14.9609L23.0273 3.02734C23.0273 1.01562 22.0117 0 19.9609 0L3.06641 0C1.02539 0 0 1.01562 0 3.02734L0 14.9609C0 16.9727 1.02539 17.9785 3.06641 17.9785ZM3.08594 16.4062C2.10938 16.4062 1.57227 15.8887 1.57227 14.873L1.57227 3.11523C1.57227 2.09961 2.10938 1.57227 3.08594 1.57227L19.9414 1.57227C20.9082 1.57227 21.4551 2.09961 21.4551 3.11523L21.4551 14.873C21.4551 15.8887 20.9082 16.4062 19.9414 16.4062Z" fill="#ffffff" fill-opacity="0.85"/>
 </g>
</svg>
