<?xml version="1.0" encoding="UTF-8"?>
<!--Generator: Apple Native CoreSVG 175.5-->
<!DOCTYPE svg
PUBLIC "-//W3C//DTD SVG 1.1//EN"
       "http://www.w3.org/Graphics/SVG/1.1/DTD/svg11.dtd">
<svg version="1.1" xmlns="http://www.w3.org/2000/svg" xmlns:xlink="http://www.w3.org/1999/xlink" width="16.4258" height="20.9473">
 <g>
  <rect height="20.9473" opacity="0" width="16.4258" x="0" y="0"/>
  <path d="M3.02734 20.9375L13.3984 20.9375C15.4102 20.9375 16.4258 19.9121 16.4258 17.8809L16.4258 3.06641C16.4258 1.02539 15.4199 0 13.3984 0L10.498 0C10.166 0 9.95117 0.234375 9.95117 0.585938C9.95117 1.60156 9.24805 2.31445 8.21289 2.31445C7.17773 2.31445 6.46484 1.60156 6.46484 0.585938C6.46484 0.234375 6.25 0 5.91797 0L3.02734 0C1.00586 0 0 1.02539 0 3.06641L0 17.8809C0 19.9121 1.01562 20.9375 3.02734 20.9375ZM3.10547 19.3652C2.08984 19.3652 1.57227 18.8184 1.57227 17.8516L1.57227 3.0957C1.57227 2.11914 2.08984 1.57227 3.10547 1.57227L5.88867 1.57227L4.98047 1.01562C5.15625 2.72461 6.42578 3.83789 8.21289 3.83789C10 3.83789 11.2695 2.72461 11.4551 1.01562L10.5371 1.57227L13.3203 1.57227C14.3359 1.57227 14.8535 2.11914 14.8535 3.0957L14.8535 17.8516C14.8535 18.8184 14.3359 19.3652 13.3203 19.3652ZM4.51172 7.27539L11.9238 7.27539C12.2656 7.27539 12.5195 7.01172 12.5195 6.66016C12.5195 6.32812 12.2656 6.06445 11.9238 6.06445L4.51172 6.06445C4.16016 6.06445 3.90625 6.32812 3.90625 6.66016C3.90625 7.01172 4.16016 7.27539 4.51172 7.27539ZM4.51172 10.7422L8.01758 10.7422C8.36914 10.7422 8.62305 10.4785 8.62305 10.1465C8.62305 9.80469 8.36914 9.54102 8.01758 9.54102L4.51172 9.54102C4.16016 9.54102 3.90625 9.80469 3.90625 10.1465C3.90625 10.4785 4.16016 10.7422 4.51172 10.7422Z" fill="#ffffff" fill-opacity="0.85"/>
 </g>
</svg>
